<svg xmlns="http://www.w3.org/2000/svg" viewBox="0 0 400 400">
  <defs>
    <path id="segment" d="M 0,-120 C -30,-120 -50,-100 -60,-75 L -80,-110 L -110,-92 L -85,-50 C -100,-35 -110,-15 -110,10 L -70,10 C -70,-15 -60,-35 -45,-50 L -20,-7 C 0,-25 20,-25 40,-7 L 65,-50 C 80,-35 90,-15 90,10 L 130,10 C 130,-15 120,-35 105,-50 L 130,-92 L 100,-110 L 80,-75 C 70,-100 50,-120 20,-120 Z" />
    
    <path id="simple-segment" d="M-15,-100 L15,-100 L35,-65 L15,-30 L-15,-30 L-35,-65 Z" />

  </defs>

  <g transform="translate(200, 200)" fill="#222222">
    <path d="M0,-85 L25,-130 L70,-130 L45,-85 L70,-40 L25,-40 Z" />
    <path d="M0,-85 L25,-130 L70,-130 L45,-85 L70,-40 L25,-40 Z" transform="rotate(60)"/>
    <path d="M0,-85 L25,-130 L70,-130 L45,-85 L70,-40 L25,-40 Z" transform="rotate(120)"/>
    <path d="M0,-85 L25,-130 L70,-130 L45,-85 L70,-40 L25,-40 Z" transform="rotate(180)"/>
    <path d="M0,-85 L25,-130 L70,-130 L45,-85 L70,-40 L25,-40 Z" transform="rotate(240)"/>
    <path d="M0,-85 L25,-130 L70,-130 L45,-85 L70,-40 L25,-40 Z" transform="rotate(300)"/>
  </g>

  </svg>